<?xml version="1.0" encoding="UTF-8"?><svg id="Ebene_2" xmlns="http://www.w3.org/2000/svg" viewBox="0 0 389 389"><defs><style>.cls-1{fill:#ffbd15;}</style></defs><g id="Ebene_1-2"><g><path class="cls-1" d="M125.89,133.92c7.94,4.07,12.25,10.48,13.12,19.31,.07,.77,.41,1.51,.64,2.26,2.07,6.75,4.62,7.63,12.31,2.86-9.37-3.65-10.62-11.94-14.17-19-3.06-6.07-9.65-8.44-16.34-9.56,1.27,1.7,2.69,3.23,4.44,4.13Z"/><path class="cls-1" d="M147.58,170.73c.41,.53,.83,1.07,1.24,1.6,3.98-2.88,7.95-5.76,11.93-8.64-.56-.71-1.12-1.42-1.69-2.13-3.83,3.06-7.66,6.12-11.49,9.18Z"/><path class="cls-1" d="M159.76,107.04c.16-4.38-.62-8.51-1.09-12.68-.14-1.25,.14-3.19,.97-3.81,3.71-2.74,7.7-5.11,11.72-7.7,5.15,4.67,4.57,11.16,5.5,17.09,1.26,8.03,2.29,15.95,11.06,19.91,3.56,1.61,4.44,4.97,3.73,8.86-.47,2.59-.4,5.27-.49,6.62,4.46,.41,8.23-.02,11.31,1.24,3.26,1.34,5.85,4.29,8.74,6.54,.43-.24,.85-.49,1.28-.73-.28-2.73-.51-5.47-.84-8.2-.46-3.72,.06-7.13,3.81-8.84,4.42-2.02,4.45-5.1,3.55-9.3-1.78-8.31-3.06-16.74-4.31-25.15-.24-1.64,.59-3.44,1.17-6.46,2.11,2.7,3.14,4.01,3.72,4.75,2.28-.43,4.14-1.31,5.76-.98,3.19,.65,6.25,1.97,10.4,3.36,.83,4.05,1.94,9.52,3.06,14.99-.39-9.63,1.02-19.62-4.72-28.19-1.44-2.15-3.9-3.6-5.8-5.46q-5.53-5.38-10.76,.18c-.32,.34-.68,.67-1.06,.94-4.07,2.94-5.82,7.01-5.46,11.91,.66,8.94,1.71,17.87,2.1,26.82,.1,2.31-1.06,5.25-2.67,6.92-1.87,1.95-4.76,3.08-7.39,4.05-1.43,.53-3.98,.67-4.79-.18-5.06-5.35-11.46-10.32-14.18-16.78-3.58-8.51-4.08-18.29-6.13-27.48-.42-1.88-1.37-4.15-2.83-5.19-4.39-3.14-9.14-5.75-14.9-9.28-1.28,3.8-2.09,6.54-3.12,9.18-.68,1.74-1.74,3.34-2.53,5.04-.81,1.74-2.5,3.81-2.09,5.26,2.13,7.66,4.81,15.18,7.29,22.74Z"/><path class="cls-1" d="M119.71,272.23c-7.56-3.86-13.34-9.34-17.25-16.87-.58-1.11-1.38-2.13-2.22-3.06-4.19-4.64-9.97-3.9-12.6,1.79-1.03,2.23-1.6,4.81-1.78,7.27-.49,6.75-.57,13.53-.98,20.28-1.17,19.2-1.17,19.26,16.19,28.11,.42,.21,.83,.44,1.26,.64,7.18,3.35,9.35,2.56,12.12-4.75,2.85-7.51,5.55-15.07,8.25-22.64,.58-1.62,.86-3.35,1.54-6.1-1.28-1.36-2.57-3.67-4.54-4.68Z"/><path class="cls-1" d="M162.25,162.42c5.26-8.31,13.97-3.12,20.63-5.93,.03-.54,.07-1.08,.1-1.62-3.1-.88-6.23-1.66-9.29-2.64-6.86-2.2-7.42-8.36-8.47-14.05-.83-4.48,1.21-7.44,5.37-9.38,1.14-.53,2.55-3.24,2.16-3.81-2.28-3.36-5.06-6.39-7.68-9.53-.39,.26-.77,.53-1.16,.79,0,1.03,.07,2.06-.01,3.08-.3,3.49-.59,6.98-1.03,10.46-.22,1.7-1.07,3.36-1.1,5.04-.1,5.34,.14,10.68,.09,16.02-.03,3.46-.33,6.91-.5,10.36,.3,.4,.59,.8,.89,1.2Z"/><path class="cls-1" d="M119.99,138.05c-.05,.37-.1,.73-.16,1.1h-8.91c3.65,3.26,9.53,2.09,10.09,7.84-2,.48-3.79,.92-5.91,1.43,2.32,1.99,4.08,3.5,5.83,5.01-.18,.35-.37,.69-.55,1.04h-6.87c-.84,7.61,7.89,6.62,10.39,12.16-3.34-.36-5.89-.64-8.85-.96,.54,.91,.77,1.82,1.32,2.12,4.37,2.36,8.61,5.13,13.25,6.75,5.27,1.84,9.91,3.87,12.36,9.31,.62,1.37,2.08,2.36,3.93,4.36,.36-5.85,.64-10.37,.94-15.25-2.91,3.43-5.06,1.51-7.33-.85-5.15-5.35-7.99-11.25-7.36-19.08,.84-10.38-11.16-19.93-21.47-17.12,3.44,.79,6.36,1.47,9.28,2.14Z"/><path class="cls-1" d="M200.81,267.39c-3.88,2.75-7.06,6.5-10.51,9.86,.43,.65,.86,1.3,1.29,1.95,4.97,0,9.94,.03,14.9-.04,.69-.01,2-.6,1.98-.82-.29-3.01-.08-6.38-1.44-8.86-.83-1.5-5.09-2.9-6.22-2.1Z"/><path class="cls-1" d="M194.5,0C87.08,0,0,87.08,0,194.5s87.08,194.5,194.5,194.5,194.5-87.08,194.5-194.5S301.92,0,194.5,0Zm0,375c-30.49,0-59.21-7.57-84.4-20.92,2.68,.93,5.58,1.42,8.59,1.34,.58-.57,1.94-1.52,2.81-2.81,4.06-6,7.9-12.15,11.99-18.14,9.08-13.3,9.09-13.19-6.11-19.41-3.81-1.56-7.22-1.7-10.75,.45-5.78,3.52-11.84,6.65-17.28,10.63-2.23,1.63-4.4,5.03-4.44,7.67-.1,6.31,2.97,12.12,7.82,16.12-3.86-2.28-7.63-4.71-11.3-7.26-.03-.73-.07-1.47,.03-2.19,.59-4.47,.61-9.14,2.05-13.33,3.94-11.52,4.18-11.45-5.27-19.63-1.07-.92-2.14-2.28-3.37-2.48-2.27-.38-5.08-.84-6.91,.13-3.99,2.12-6.6,5.57-6.89,10.54-.19,3.15-.5,6.31-.86,9.65-.66-.63-1.32-1.27-1.97-1.91,.36-2.45,.66-4.98,1.13-7.52-.46-1.59-.45-4.47-1.89-5.9-3.97-3.98-8.42-7.54-12.99-10.83-.92-.66-3.72,.03-4.76,1.03-.3,.28-.58,.58-.87,.87-.73-1-1.46-2.01-2.18-3.03,.04-.06,.09-.12,.13-.18,4.75-6.57,4.65-6.34,11.09-1.22,3.71,2.95,8.04,5.32,12.41,7.2,3.34,1.43,6.33-.4,7.51-3.85,1.37-4,2.87-8.1,3.24-12.26,.99-10.98,1.51-22.01,2.01-33.02,.34-7.5,4.82-11.71,12.32-11.73,5.91-.02,9.52,3.4,13.09,7.35,4.75,5.25,9.57,10.44,14.58,15.44,1.78,1.78,3.98,2.97,6.56,.4,6.22-6.22,9.38-13.29,7.42-22.22-1.75-7.95-.58-15.65,2.28-23.2,2.21-5.83,.81-7.81-5.57-7.84-4.42-.02-8.84,.35-13.29,.54,6.1-9.52,15.22-5.92,23.7-5.05,.26-.58,.53-1.15,.79-1.73-2.98-3.53-6.22-6.87-8.84-10.65-1.64-2.37-3.38-2.9-5.5-1.6-4.55,2.78-9.79,5.08-13.22,8.94-13.11,14.74-28.43,26.64-44.2,38.34-13.49,10.01-25.25,22.32-38.19,33.12-.54,.45-1.04,.91-1.5,1.37-12.47-24.53-19.51-52.29-19.51-81.7C14,94.81,94.81,14,194.5,14s180.5,80.81,180.5,180.5-80.81,180.5-180.5,180.5Z"/><path class="cls-1" d="M284.76,132.64c-1.24-.12-2.52-.02-3.75,.16-12.98,1.95-25.09,6.11-35.64,14.19-1.06,.81-2.25,1.44-4.04,2.58-.86-11.21-1.67-21.64-2.37-30.77-1.32,.88-3.21,2.14-5.1,3.38-1.12,.74-2.95,1.23-3.28,2.22-2.11,6.42-4.17,12.88-5.58,19.47-.37,1.71,1.09,5,2.6,5.72,12.65,6.08,20.2,17.58,30.97,27.41-10.53,.82-19.72,1.53-29.27,2.28,0-6.16-.47-12.13,.12-18,.71-7.02-2.34-9.8-9.36-7.91-2.16,.58-4.59,.37-6.88,.22-4.54-.29-9.06-.95-13.6-1.13-1.42-.06-2.89,.92-4.33,1.42-.07,.39-.14,.78-.21,1.16,11.03,4.87,20.71,10.96,22.7,24.5-1.98-.11-3.69-.23-5.39-.3-11.19-.48-22.39-1.55-33.55-1.29-13.89,.33-22.64,3.31-25.54,17.83-.03,.12-.22,.22-.66,.61-3.74-2.27-7.66-4.53-11.44-7.03-.93-.62-1.77-1.93-1.93-3.03-.65-4.49-3.76-6.11-7.53-7.52-5.4-2.02-10.64-4.46-15.95-6.71-.85-.36-2.17-1.25-2.5-.98-2.64,2.24-3.74-.36-4.88-1.63-10.61-11.86-12.87-26.28-12.35-41.46,.13-3.95,3.06-5.42,6.56-5.28,3.51,.14,6.99,.84,10.48,1.3-1.42-1.86-3.16-3.02-5.07-3.77-11.56-4.54-15.63-2.34-17.6,9.87-2.24,13.91,1.99,26.19,10.22,37.27,5.83,7.86,11.83,15.1,23.47,13.59,5.01-.65,7.39,2.44,8.71,7.63,.33,1.3,1.48,2.58,2.58,3.45,5.84,4.61,11.81,9.07,17.66,13.67,.48,.38,.31,1.51,.58,2.24,2.23,6.06,4.5,12.1,6.63,17.83-.93,2.15-2.33,4.77-3.21,7.56-1.59,5.05,.23,9.22,3.95,12.71-2.78-.62-5.46,.14-3.84,3.26,2.9,5.61,6.49,10.94,10.37,15.94,1.61,2.08,3.72,.56,3.45-1.95-.59-5.52-.42-11.54-6.92-14.33-.92-.39-1.56-1.44-2.33-2.18l4.44,.49c1.89-6.2-4.82-12.39,1.53-18.62-.32,1.9-.62,2.95-.65,4-.22,6.58,.1,13.05,5.75,17.67,.99,.81,2.95,1.68,3.7,1.24,1.08-.64,2.25-2.64,2-3.74-.65-2.78-1.89-5.48-3.22-8.04-1.47-2.84-3.29-5.5-4.75-7.89,5.86-1.14,11.48-1.15,16.07-3.34,10.02-4.78,17.9-12.48,23-22.38,2.54-4.93,3.39-10.7,5.37-15.95,.67-1.79,2.23-3.58,3.88-4.5,.7-.39,2.66,1.46,4.04,2.3,.64,.39,1.32,.73,1.87,1.21,1.12,.98,2.94,1.91,3.14,3.08,2.31,13.6,10.73,22.95,20.45,31.93,5.27,4.86,12.1,10.06,8.79,19.35-.33,.93,.05,2.19,.3,3.25,.53,2.2,1.21,4.37,1.71,6.16-5.66,.35-10.99,.68-16.31,1h-.05l-.03-.05c5.56-10.17-1.05-19.95-15.13-23.43-1.46-.36-3-.65-4.61-.87,1.24-2.65,.43-4.04-2.47-3.25-5.15,1.4-8.98,4.6-11,9.57-.45,1.1,.27,2.67,.46,4.09-3.32,.98-5.88,3.49-5.92,7.52-.06,6.47,2.84,11.82,7.62,16.35-.83-6.9-1.66-13.79-2.48-20.69,.53,.23,1.06,.47,1.59,.7,2.17-2.11,4.53-4.07,6.48-6.37,4.26-5.02,7.79-5.73,12.1-2.09-6.7,4.69-8.09,9.56-3.88,14.98,1.7,2.19,4.04,3.98,6.35,5.56,1.12,.77,3.41,1.34,4.18,.74,.94-.74,1.34-2.91,1.05-4.27-.41-1.9-1.4-3.84-2.64-5.34-1.05-1.26-2.82-1.91-4.27-2.83,.46-.49,.92-.99,1.38-1.48,3.69,.58,6.17,2.77,7.92,6.2,.89,1.74,2.16,3.28,3.27,4.9-.01,.02-.02,.04-.03,.07h.12c1.76,.55,3.52,1.07,5.27,1.66,2.79,.94,6.02,1.32,8.26,3.01,8,6.05,11.51,14.29,10.67,24.4-.46,5.47-1.74,7.25-7.25,8.15-5.13,.84-10.31,1.41-15.47,2.13-7.76,1.09-13.92-1.81-18.79-7.67-2.93-3.52-5.56-7.28-8.5-10.78-1.18-1.4-2.84-2.39-4.71-3.91-1.85,17.19,13.97,33.69,29.89,32.18,1.94-.18,4.63-.74,5.52-2.09,2.48-3.73,5.9-4.17,9.75-4.35,2.03-.1,4.05-.6,6.07-.92,5.14-.82,7.87-4.02,8.03-9.02,.28-8.65,1.07-17.38-2.91-25.59-.74-1.51-1.25-3.37-1.14-5.02,.72-10.7-2.94-19.41-11.31-26.13-.13-.1-.02-.5-.02-.9,1.56,.29,3.09,.61,4.64,.85,9.66,1.47,19.89-3.83,22.67-13.06,2.34-7.74,5.88-15.47,2.31-24.25-2.68-6.59-5.83-11.82-13.05-13.6-2.4-.59-4.83-1.07-7.79-1.71,1.4-1.5,2.44-2.84,3.7-3.93,9.27-8.1,16.25-18.02,22.46-28.51,4.17-7.04,1.79-11.54-6.33-12.32Z"/><path class="cls-1" d="M148.21,255.77c-1.46,.53-2.92,1.05-4.38,1.58,.92,2.54,1.19,5.75,2.93,7.46,2.61,2.57,6.12,4.38,9.53,5.91,1.53,.69,4.77,.62,5.39-.32,1.53-2.34,1.97-5.45-.97-7.52-1.25-.89-2.86-1.26-4.21-2.03-2.41-1.39-4.74-2.91-7.1-4.38,.62,0,1.25-.04,1.86,.04,5.39,.67,5.58,.27,4.51-5.13-1.36-6.85-2.38-13.78-3.55-20.67,2.14,.9,3.44,.1,3.49-2.13,.2-7.67-3.02-14.02-7.64-20.42-3.74,4.43-3.62,8.49-1.41,12.72,.65,1.25,1.34,2.48,2.03,3.71s1.4,2.45,2.09,3.68c-1.24-1.14-2.48-2.28-3.73-3.44-1.26-1.16-2.53-2.32-3.83-3.52-.56,.44-1.16,.72-1.47,1.19-5.35,7.97-4.48,21.23,1.9,28.65,1.42,1.64,3.05,3.1,4.58,4.64Z"/><path class="cls-1" d="M200.33,260.67c1.16-.58,1.77-2.26,1.85-2.37-1.85-9.1-3.31-16.92-5.22-24.64-.18-.74-3.66-1.63-4.83-1-9.36,5.06-10.45,20.8-2.04,27.25,3.2,2.46,6.79,2.47,10.23,.75Z"/><path class="cls-1" d="M194.44,268.87c.14-1.27-.58-3.16-1.57-3.95-5.77-4.58-12.47-5.24-20.61-4.37,1.73,4.96,3.23,9.27,5.26,15.1-2.49-1.58-4.15-2.24-5.25-3.41-3.62-3.86-5.32-3.95-10.22,.55,2.57,1.62,4.95,3.11,7.42,4.66-1.72,3.75-3.94,4.4-6.97,1.77-2.98-2.58-5.83-5.32-9-7.64-10.6-7.75-13.64-6.27-16.14,6.61-2.64,13.58-.39,25.59,10.52,36.85,1.09-1.57,1.89-2.94,2.9-4.13,7.76-9.14,15.66-18.15,23.28-27.4,2.59-3.15,5.41-5.02,9.53-5.2,2.93-.13,10.56-6.72,10.85-9.44Z"/></g></g></svg>